<?xml version="1.0" standalone="no"?>
<!DOCTYPE svg PUBLIC "-//W3C//DTD SVG 20010904//EN"
 "http://www.w3.org/TR/2001/REC-SVG-20010904/DTD/svg10.dtd">
<svg version="1.0" xmlns="http://www.w3.org/2000/svg"
 width="3000.000000pt" height="1235.000000pt" viewBox="0 0 3000.000000 1235.000000"
 preserveAspectRatio="xMidYMid meet">

<g transform="translate(0.000000,1235.000000) scale(0.100000,-0.100000)"
fill="#E5CE38" stroke="none">
<path d="M7140 8225 l0 -3885 683 0 682 0 -2 3882 -3 3883 -680 3 -680 2 0
-3885z"/>
<path d="M11270 11210 c-14 -5 -142 -43 -285 -85 -143 -42 -287 -85 -320 -95
-33 -10 -177 -53 -320 -95 -143 -42 -293 -86 -332 -98 l-73 -22 0 -537 0 -538
-470 -2 -470 -3 -3 -663 -2 -662 472 0 472 0 4 -1317 c3 -1291 3 -1321 24
-1448 31 -188 49 -267 88 -382 177 -528 565 -833 1185 -932 335 -54 647 -54
1153 -1 104 11 191 20 193 20 2 0 4 281 4 625 l0 625 -152 -7 c-84 -5 -283 -8
-443 -8 -266 1 -297 3 -380 23 -160 40 -242 112 -282 247 -16 56 -18 147 -20
1308 l-4 1247 641 0 640 0 -2 663 -3 662 -637 3 -638 2 0 740 c0 407 -3 740
-7 739 -5 0 -19 -4 -33 -9z"/>
<path d="M2975 9864 c-615 -67 -1090 -274 -1539 -673 -277 -245 -524 -585
-677 -932 -145 -329 -219 -633 -253 -1043 -14 -158 -14 -200 -1 -351 23 -266
46 -411 96 -603 209 -788 740 -1448 1444 -1791 414 -202 847 -288 1311 -260
182 11 301 27 459 64 366 86 714 267 969 506 l76 71 0 -256 0 -256 685 0 685
0 0 2700 0 2700 -685 0 -685 0 0 -256 0 -256 -72 64 c-171 151 -305 242 -503
338 -189 93 -320 137 -560 190 -123 27 -276 41 -485 45 -124 1 -243 1 -265 -1z
m735 -1347 c637 -143 1052 -609 1141 -1282 15 -114 6 -388 -16 -509 -36 -199
-137 -440 -252 -605 -67 -95 -254 -277 -353 -343 -172 -115 -378 -197 -585
-234 -151 -27 -423 -25 -576 4 -351 67 -647 238 -858 497 -83 101 -117 154
-176 273 -217 436 -218 992 -5 1428 197 401 540 670 981 768 155 34 157 34
384 31 173 -2 216 -6 315 -28z"/>
<path d="M15445 9864 c-466 -49 -792 -137 -1120 -305 -556 -283 -994 -746
-1239 -1311 -167 -385 -240 -754 -240 -1213 0 -319 26 -527 100 -810 268
-1029 1093 -1768 2191 -1964 207 -37 225 -39 448 -51 199 -11 477 0 655 26
809 118 1448 505 1884 1141 44 64 75 118 70 123 -13 12 -1126 661 -1129 658
-1 -2 -31 -43 -65 -93 -144 -204 -343 -364 -576 -461 -259 -107 -557 -144
-884 -109 -508 54 -898 290 -1123 680 -39 67 -97 196 -109 242 -2 10 416 13
2009 13 1318 0 2014 3 2018 10 10 17 54 378 60 505 12 211 -24 564 -81 810
-123 527 -381 993 -746 1351 -133 131 -166 161 -273 240 -354 266 -769 435
-1222 500 -104 15 -539 27 -628 18z m351 -1264 c355 -29 621 -144 839 -364
103 -104 175 -207 245 -351 45 -94 100 -243 100 -272 0 -11 -260 -13 -1345
-13 -740 0 -1345 2 -1345 4 0 21 72 201 112 278 216 423 619 678 1131 717 56
5 109 9 118 10 9 0 74 -4 145 -9z"/>
<path d="M24445 9864 c-16 -3 -84 -11 -151 -19 -294 -36 -624 -146 -907 -302
-535 -294 -982 -809 -1217 -1403 -151 -380 -228 -865 -201 -1268 44 -653 262
-1216 655 -1692 219 -266 494 -494 791 -657 431 -237 909 -343 1404 -313 238
15 399 43 596 102 314 95 629 274 841 478 34 33 64 60 65 60 2 0 3 -115 1
-255 l-3 -255 686 0 685 0 0 1353 0 1352 -1410 1410 -1410 1410 -197 1 c-109
1 -211 0 -228 -2z m715 -1343 c296 -65 524 -186 731 -391 202 -199 326 -431
397 -740 24 -107 26 -132 26 -350 1 -254 -11 -343 -70 -520 -212 -637 -801
-1031 -1489 -997 -787 40 -1353 591 -1415 1377 -39 496 121 940 451 1255 194
184 412 299 683 359 151 34 154 34 381 32 165 -2 218 -7 305 -25z"/>
<path d="M21420 9815 c-453 -55 -829 -232 -1094 -517 l-86 -92 0 267 0 267
-682 -2 -683 -3 -3 -2697 -2 -2698 685 0 684 0 4 1468 c3 1330 5 1475 20 1552
83 414 267 682 587 851 224 119 456 165 786 157 l194 -5 0 733 0 734 -152 -1
c-84 -1 -200 -7 -258 -14z"/>
<path d="M28120 4935 l0 -55 118 0 117 0 -3 -270 -3 -270 61 0 60 0 0 270 0
269 118 3 117 3 3 53 3 52 -295 0 -296 0 0 -55z"/>
<path d="M28790 4665 l0 -325 55 0 55 0 0 267 c0 165 4 263 9 258 9 -9 100
-178 159 -293 l27 -53 53 3 54 3 74 140 c41 77 83 156 94 175 l19 35 1 -267 0
-268 60 0 60 0 0 325 0 325 -90 0 -89 0 -38 -69 c-21 -38 -60 -114 -88 -170
-27 -55 -52 -100 -55 -100 -3 -1 -45 75 -95 167 l-90 167 -87 3 -88 3 0 -326z"/>
<path d="M12530 1605 l0 -865 100 0 100 0 0 865 0 865 -100 0 -100 0 0 -865z"/>
<path d="M14231 2429 c-343 -44 -622 -296 -707 -639 -29 -115 -26 -365 4 -479
72 -264 225 -444 462 -543 114 -48 200 -63 350 -62 242 3 420 78 571 241 31
34 70 84 87 112 l32 51 -70 45 c-39 25 -74 45 -79 45 -5 0 -23 -22 -41 -49
-75 -118 -218 -221 -355 -256 -75 -19 -233 -19 -305 0 -252 67 -426 281 -461
567 -30 246 37 464 191 619 120 122 258 179 433 179 194 0 351 -85 473 -256
25 -35 48 -64 50 -64 10 0 154 95 154 101 0 18 -88 135 -141 188 -107 108
-259 179 -429 200 -94 12 -126 12 -219 0z"/>
<path d="M5092 2333 c-17 -38 -88 -201 -157 -363 -158 -367 -365 -846 -417
-965 -75 -172 -108 -249 -108 -257 0 -4 49 -8 108 -8 l109 0 10 33 c6 17 49
122 96 232 l85 200 430 3 430 2 64 -152 c36 -84 80 -190 99 -235 l34 -82 113
-1 c126 0 123 -2 87 70 -11 22 -447 1035 -620 1440 l-62 145 -135 3 -135 3
-31 -68z m218 -253 c102 -247 251 -596 275 -647 l25 -53 -360 0 -359 0 21 48
c11 26 31 73 44 105 13 31 35 83 48 115 35 85 148 353 212 504 15 37 31 64 35
60 4 -4 31 -63 59 -132z"/>
<path d="M8240 1565 l0 -825 110 0 110 0 0 825 0 825 -110 0 -110 0 0 -825z"/>
<path d="M10370 2055 l0 -175 -112 0 -113 0 3 -80 4 -80 108 0 109 0 3 -373 3
-372 33 -67 c59 -120 140 -158 355 -166 l138 -5 -3 84 -3 84 -110 5 c-128 6
-159 21 -194 93 -20 41 -21 59 -21 380 l0 337 165 0 165 0 0 80 0 80 -166 2
-166 3 1 173 2 172 -101 0 -100 0 0 -175z"/>
<path d="M11525 1901 c-162 -46 -293 -156 -363 -302 -53 -111 -65 -171 -64
-306 1 -96 5 -124 32 -204 47 -141 119 -234 235 -304 98 -59 181 -80 315 -79
186 0 319 50 442 165 l63 58 -52 52 -52 52 -58 -48 c-32 -26 -92 -64 -133 -84
-73 -35 -78 -36 -190 -36 -108 0 -119 2 -174 30 -110 55 -181 145 -220 274
-30 101 -79 91 449 91 l465 0 0 83 c-1 285 -157 504 -401 562 -84 20 -218 18
-294 -4z m286 -158 c112 -50 193 -168 213 -310 l6 -43 -370 0 c-203 0 -370 4
-370 8 0 19 34 120 52 157 48 93 126 163 223 198 66 23 181 19 246 -10z"/>
<path d="M15730 1901 c-252 -69 -422 -280 -437 -541 -8 -134 9 -223 65 -333
180 -361 660 -437 947 -149 274 273 215 767 -114 962 -127 76 -316 101 -461
61z m302 -174 c203 -92 300 -358 215 -590 -45 -124 -122 -205 -234 -247 -81
-30 -205 -26 -284 11 -179 84 -278 321 -224 534 41 161 133 263 280 312 63 21
179 12 247 -20z"/>
<path d="M20798 1910 c-139 -24 -231 -67 -357 -166 -3 -3 28 -52 80 -127 4 -5
28 8 55 29 100 77 232 120 343 112 155 -11 252 -114 268 -283 l6 -63 -249 -5
c-190 -4 -263 -9 -308 -22 -131 -37 -218 -100 -263 -193 -24 -48 -28 -69 -28
-137 1 -178 109 -298 296 -331 128 -22 247 -1 356 63 59 34 156 131 173 172
23 57 31 33 29 -91 l-1 -123 91 -3 91 -3 0 388 c0 429 -4 467 -62 575 -87 163
-294 246 -520 208z m387 -686 c-21 -146 -114 -268 -252 -332 -50 -23 -71 -26
-153 -27 -86 0 -99 3 -142 28 -69 40 -92 78 -96 158 -5 74 7 106 57 153 59 56
110 65 365 66 l228 0 -7 -46z"/>
<path d="M6845 1894 c-104 -25 -210 -103 -263 -193 l-27 -46 -3 113 -3 112
-99 0 -100 0 0 -570 0 -570 99 0 99 0 4 333 c4 310 6 337 27 402 58 181 202
288 364 271 117 -12 195 -72 236 -180 20 -54 21 -74 21 -441 l0 -385 100 0
100 0 0 388 c-1 413 -5 465 -51 558 -28 60 -99 138 -154 169 -89 52 -230 68
-350 39z"/>
<path d="M9365 1896 c-111 -28 -241 -125 -274 -205 -8 -17 -17 -31 -22 -31 -5
0 -9 50 -9 110 l0 110 -95 0 -95 0 0 -570 0 -570 100 0 100 0 0 318 c1 220 5
335 14 377 27 128 112 243 210 286 39 17 71 23 132 23 70 1 88 -3 139 -29 62
-32 114 -94 136 -163 8 -25 14 -163 16 -424 l5 -388 100 0 100 0 -4 403 c-4
386 -5 405 -27 472 -40 123 -101 200 -199 249 -90 45 -222 58 -327 32z"/>
<path d="M17255 1896 c-105 -26 -195 -93 -257 -189 l-33 -52 -3 40 c-2 21 -2
72 0 112 l3 73 -97 0 -98 0 0 -570 0 -570 100 0 100 0 0 318 c0 358 9 424 73
531 86 145 262 200 406 127 60 -31 93 -69 123 -143 22 -57 23 -68 26 -446 l3
-388 97 3 97 3 5 355 5 355 29 68 c17 40 49 90 77 121 146 160 396 131 480
-57 24 -51 24 -56 27 -449 l3 -398 100 0 99 0 0 388 c0 353 -2 396 -20 465
-10 43 -31 97 -45 122 -39 65 -125 140 -193 165 -116 45 -284 35 -396 -22 -55
-28 -141 -111 -174 -170 l-28 -48 -23 49 c-29 65 -103 142 -166 174 -93 46
-216 59 -320 33z"/>
<path d="M19486 1894 c-111 -27 -235 -112 -304 -209 l-21 -30 -1 113 0 112
-100 0 -100 0 0 -815 0 -815 103 0 102 0 -2 357 -2 358 22 -30 c140 -191 372
-266 586 -190 124 43 244 153 306 279 47 93 64 175 65 297 0 179 -54 321 -166
435 -129 130 -309 181 -488 138z m215 -173 c151 -57 239 -207 239 -406 0 -251
-141 -420 -360 -433 -340 -19 -545 389 -344 685 57 83 150 150 241 173 57 14
161 5 224 -19z"/>
<path d="M22203 1895 c-29 -8 -72 -24 -95 -36 -53 -27 -149 -118 -174 -164
-10 -19 -21 -35 -24 -35 -3 0 -3 49 -2 110 l4 110 -101 0 -101 0 0 -570 0
-570 100 0 100 0 0 313 c0 278 2 323 19 390 36 139 98 223 199 273 49 24 69
28 142 28 72 0 92 -4 135 -26 58 -30 85 -57 114 -113 36 -69 41 -136 41 -506
l0 -359 100 0 100 0 0 374 c0 427 -7 487 -64 591 -76 135 -208 206 -379 204
-34 0 -86 -7 -114 -14z"/>
<path d="M22950 1875 c0 -3 30 -79 66 -168 37 -89 90 -220 119 -292 122 -301
209 -516 246 -602 21 -51 39 -100 39 -109 0 -9 -45 -114 -100 -234 -55 -119
-100 -218 -100 -221 0 -2 46 -3 103 -1 l103 3 53 132 c30 73 64 157 77 187 13
30 66 161 119 290 53 129 109 267 125 305 16 39 72 176 125 305 53 129 111
272 130 317 19 45 35 84 35 87 0 3 -46 6 -103 6 l-102 0 -47 -122 c-26 -68
-88 -231 -139 -363 -51 -132 -102 -267 -114 -300 -13 -33 -32 -82 -43 -110
l-20 -50 -12 30 c-7 17 -22 57 -35 90 -13 33 -42 110 -65 170 -23 61 -50 130
-59 155 -10 25 -57 148 -106 273 l-88 227 -103 0 c-57 0 -104 -2 -104 -5z"/>
</g>
</svg>
