<?xml version="1.0" standalone="no"?>
<!DOCTYPE svg PUBLIC "-//W3C//DTD SVG 20010904//EN"
 "http://www.w3.org/TR/2001/REC-SVG-20010904/DTD/svg10.dtd">
<svg version="1.0" xmlns="http://www.w3.org/2000/svg"
 width="800.000000pt" height="646.000000pt" viewBox="0 0 800.000000 646.000000"
 preserveAspectRatio="xMidYMid meet">

<g transform="translate(0.000000,646.000000) scale(0.100000,-0.100000)"
fill="#E5CE38" stroke="none">
<path d="M6375 4616 c-73 -24 -129 -58 -185 -115 -203 -202 -198 -594 9 -783
70 -64 135 -94 234 -109 244 -36 446 90 520 326 31 100 30 272 -2 365 -50 143
-128 236 -246 292 -64 30 -79 33 -180 35 -70 2 -125 -2 -150 -11z m229 -170
c55 -23 111 -81 142 -148 24 -53 29 -78 32 -163 4 -115 -13 -180 -67 -259 -90
-131 -283 -141 -389 -21 -144 163 -98 496 81 584 50 25 150 28 201 7z"/>
<path d="M7378 4611 c-110 -35 -193 -97 -252 -185 -139 -209 -115 -523 53
-695 151 -155 422 -171 562 -35 40 39 51 34 45 -20 l-5 -36 79 0 80 0 0 255 0
255 -205 0 -205 0 0 -80 0 -80 120 0 120 0 0 -25 c0 -39 -24 -78 -80 -128
-117 -105 -272 -100 -374 14 -151 166 -108 495 78 591 49 25 129 33 182 19 47
-12 122 -74 154 -126 l22 -35 85 0 85 0 -7 33 c-45 213 -310 350 -537 278z"/>
<path d="M2950 4617 c0 -2 -74 -224 -165 -493 -91 -269 -165 -492 -165 -496 0
-5 44 -8 98 -8 l98 0 28 93 c15 50 30 100 33 110 4 16 20 17 190 15 l186 -3
36 -107 36 -108 103 0 c57 0 102 4 100 9 -1 4 -86 229 -188 500 l-184 491
-103 0 c-57 0 -103 -2 -103 -3z m174 -408 c31 -91 56 -180 56 -197 l0 -32
-120 0 -120 0 0 31 c0 17 21 97 46 178 25 80 50 161 56 180 13 43 13 44 82
-160z"/>
<path d="M3570 4120 l0 -500 100 0 100 0 0 337 0 338 92 -140 c199 -304 262
-402 304 -467 l44 -68 95 0 95 0 0 500 0 500 -100 0 -100 0 0 -332 0 -332 -51
79 c-147 227 -183 283 -274 428 l-100 157 -102 0 -103 0 0 -500z"/>
<path d="M4689 4343 c-50 -153 -125 -374 -166 -492 -40 -118 -73 -218 -73
-223 0 -4 44 -8 98 -8 l99 0 27 93 c16 50 30 100 33 110 4 16 20 17 191 15
l186 -3 35 -107 35 -108 104 0 c57 0 102 4 100 9 -1 5 -86 230 -188 500 l-184
491 -102 0 -102 0 -93 -277z m270 -141 c33 -100 61 -191 61 -202 0 -19 -7 -20
-130 -20 l-130 0 0 29 c0 16 27 110 60 208 33 98 60 180 60 182 0 25 28 -45
79 -197z"/>
<path d="M5410 4120 l0 -500 320 0 320 0 0 85 0 85 -225 0 -225 0 0 415 0 415
-95 0 -95 0 0 -500z"/>
<path d="M5 3490 l0 -1120 1115 0 1115 0 0 1120 0 1120 -1115 0 -1115 0 0
-1120z m539 725 c42 -25 78 -45 80 -45 2 0 48 -25 102 -56 55 -31 178 -100
274 -154 96 -54 243 -136 325 -182 83 -47 173 -97 200 -112 28 -16 114 -64
193 -108 l143 -80 -113 -68 c-62 -36 -223 -131 -358 -210 -135 -79 -364 -214
-510 -300 -346 -204 -407 -240 -414 -240 -3 0 -6 360 -6 800 0 440 2 800 4
800 2 0 39 -20 80 -45z"/>
<path d="M5862 3400 c-181 -38 -303 -177 -339 -386 -41 -242 74 -508 260 -603
110 -56 281 -53 406 6 101 48 191 164 208 268 l6 35 -96 0 -96 0 -21 -47 c-25
-58 -73 -110 -117 -129 -47 -20 -137 -18 -182 5 -82 42 -143 145 -161 271 -19
136 12 276 80 353 50 56 94 77 163 77 43 0 62 -5 93 -28 46 -34 98 -91 119
-132 l16 -30 100 0 c116 0 111 -8 59 107 -48 105 -138 188 -239 219 -58 18
-202 26 -259 14z"/>
<path d="M7490 3399 c-72 -12 -167 -57 -208 -100 -98 -99 -116 -252 -41 -342
57 -70 150 -110 345 -152 137 -29 188 -56 203 -110 22 -81 -29 -142 -138 -166
-134 -28 -254 27 -276 129 l-7 32 -94 0 c-86 0 -95 -2 -90 -17 2 -10 8 -34 11
-53 17 -87 105 -183 204 -222 48 -19 75 -22 191 -22 158 -1 216 16 294 85 75
66 99 117 104 219 4 74 1 92 -18 129 -47 93 -119 131 -328 173 -160 31 -213
55 -237 104 -19 40 -19 57 1 95 23 44 83 69 172 69 110 0 171 -35 187 -110 l7
-30 94 0 94 0 -6 33 c-34 201 -209 298 -464 256z"/>
<path d="M2600 2889 l0 -501 253 4 c234 4 256 6 312 28 83 32 125 60 173 117
155 180 137 556 -33 727 -111 110 -168 126 -472 126 l-233 0 0 -501z m492 303
c93 -58 141 -170 140 -327 -1 -159 -39 -242 -134 -289 -47 -24 -63 -26 -170
-26 l-118 0 0 333 c0 184 2 336 4 338 2 2 58 2 123 -1 101 -4 123 -8 155 -28z"/>
<path d="M3520 2890 l0 -500 375 0 375 0 0 85 0 85 -275 0 -275 0 0 135 0 135
235 0 235 0 0 93 0 92 -235 -3 -235 -3 0 111 0 110 270 0 270 0 0 80 0 80
-370 0 -370 0 0 -500z"/>
<path d="M4320 3366 c0 -22 38 -142 94 -296 23 -63 106 -303 174 -502 l57
-167 83 -3 c46 -2 90 0 99 3 16 5 65 143 263 734 39 116 70 220 70 233 0 21
-3 22 -99 22 l-98 0 -53 -177 c-29 -98 -63 -212 -76 -253 -12 -41 -38 -124
-57 -185 l-34 -110 -17 55 c-9 30 -58 192 -110 360 l-93 305 -102 3 -101 3 0
-25z"/>
<path d="M5220 2895 l0 -495 105 0 105 0 0 495 0 495 -105 0 -105 0 0 -495z"/>
<path d="M6440 2890 l0 -500 365 0 365 0 0 85 0 85 -270 0 -270 0 0 135 0 136
230 -3 230 -3 0 90 0 90 -230 -3 -230 -4 0 106 0 106 260 0 260 0 0 90 0 90
-355 0 -355 0 0 -500z"/>
</g>
</svg>
