<?xml version="1.0" standalone="no"?>
<!DOCTYPE svg PUBLIC "-//W3C//DTD SVG 20010904//EN"
 "http://www.w3.org/TR/2001/REC-SVG-20010904/DTD/svg10.dtd">
<svg version="1.0" xmlns="http://www.w3.org/2000/svg"
 width="296.000000pt" height="170.000000pt" viewBox="0 0 296.000000 170.000000"
 preserveAspectRatio="xMidYMid meet">

<g transform="translate(0.000000,170.000000) scale(0.100000,-0.100000)"
fill="#E5CE38" stroke="none">
<path d="M170 962 c-40 -20 -111 -135 -114 -184 -2 -50 20 -54 97 -18 65 31
69 35 104 104 19 39 41 74 47 78 20 13 86 9 92 -6 3 -8 -11 -46 -30 -85 l-36
-71 40 -20 c21 -11 42 -20 44 -20 3 0 24 36 46 81 70 138 53 159 -135 159 -95
0 -127 -4 -155 -18z"/>
<path d="M552 885 c-46 -94 -53 -138 -23 -155 11 -5 80 -10 153 -10 105 0 138
3 156 16 12 8 47 65 77 125 l55 109 -45 0 -45 0 -51 -102 c-28 -57 -57 -106
-63 -110 -6 -4 -32 -8 -58 -8 -36 0 -48 4 -48 15 0 9 20 56 45 105 25 49 45
92 45 95 0 3 -35 5 -78 5 l-78 0 -42 -85z"/>
<path d="M1043 950 c-22 -13 -44 -43 -68 -89 -40 -80 -43 -101 -16 -125 16
-14 39 -16 161 -14 104 2 145 6 148 16 3 9 -17 12 -77 12 -49 0 -81 4 -81 10
0 6 9 28 20 50 l20 39 82 3 c54 2 83 7 86 16 3 9 -16 12 -72 12 -42 0 -76 4
-76 9 0 5 8 18 18 30 14 17 30 21 96 23 53 2 81 7 84 16 3 9 -30 12 -145 12
-129 0 -152 -3 -180 -20z"/>
<path d="M1444 951 c-39 -24 -108 -153 -98 -185 12 -41 31 -46 180 -46 117 0
143 3 148 15 4 13 -8 15 -79 15 -62 0 -85 3 -85 13 1 6 20 48 43 92 l42 80 82
3 c60 2 83 7 87 17 5 13 -17 15 -142 15 -127 0 -151 -3 -178 -19z"/>
<path d="M1816 955 c-4 -12 4 -15 44 -15 28 0 50 -3 50 -6 0 -3 -24 -52 -54
-110 l-54 -104 87 0 87 0 54 110 54 110 52 0 c34 0 56 5 64 15 11 13 -10 15
-183 15 -164 0 -196 -2 -201 -15z"/>
<path d="M2254 951 c-21 -13 -44 -44 -68 -92 -42 -83 -43 -92 -16 -119 18 -18
33 -20 164 -20 119 0 145 3 150 15 4 13 -8 15 -79 15 -52 0 -85 4 -85 10 0 6
9 29 20 50 l20 40 84 0 c65 0 85 3 90 15 4 13 -8 15 -74 15 -44 0 -80 4 -80 9
0 5 8 18 18 30 14 17 30 21 96 23 53 2 81 7 84 16 3 9 -30 12 -145 12 -128 0
-152 -3 -179 -19z"/>
<path d="M2606 880 c-45 -92 -48 -116 -16 -145 14 -13 43 -15 180 -13 120 2
164 6 168 16 3 9 -22 12 -102 12 -67 0 -106 4 -106 11 0 5 22 55 49 110 l49
99 -90 0 -89 0 -43 -90z"/>
<path d="M175 736 l-50 -24 45 -1 c31 -1 70 -13 120 -37 64 -32 88 -38 163
-42 60 -3 87 -1 87 7 0 6 -10 11 -23 11 -13 0 -50 16 -83 36 -138 84 -174 91
-259 50z"/>
</g>
</svg>
