<svg fill="#e5ce38" width="300" height="300" viewBox="1 0 30 60" xml:space="preserve"  xmlns="http://www.w3.org/2000/svg">
 
  <path d="M13.8 6.4c-1.4-1.1-2.9-1.9-4.6-2.5 1.5.9 3 1.7 4.2 2.9-.1 1.1-1.5 1.8-3.1 1.7-.1-.1.1-.1.1-.3-.4-.1-.9 0-1.2-.2 0-.1.2-.1.1-.2-.3-.2-.7-.3-1-.5 0-.1.2-.1.3-.2-.3-.2-.7-.3-1-.6.1-.1.2 0 .3-.2-.3-.2-.6-.4-.8-.7.1-.1.2 0 .3-.1-.1-.3-.5-.5-.6-.8.2 0 .3.1.5-.1-.2-.3-.6-.4-.7-.8.1-.1.3 0 .4-.1 0-.3-.2-.5-.3-.8.3-.1.7 0 1-.1 0-.1-.1-.2-.1-.3.4-.2.8 0 1.2.1.1-.2-.1-.2 0-.4.3 0 .6.2 1 .2.1-.2-.2-.2-.2-.4.4 0 .7.2 1 .4.1-.1 0-.2.1-.4.3.1.5.3.8.5.2 0 .1-.2.2-.3.3.1.5.4.7.5.2 0 .1-.2.2-.3.3.2.5.5.7.7.2 0 .1-.2.3-.2.6.7 1.2 1.5 1.1 2.5 0 .5-.4.8-.9 1m9.7.7c.1.1.2.1.3.1-.3.3-.7.3-1.1.5 0 .1.1.1.1.2-.3.2-.8.1-1.1.2-.1.1.1.2 0 .3-.4.1-.8 0-1.3-.1-.9-.2-1.6-.6-1.9-1.5 1.2-1.3 2.7-2.1 4.2-2.9-1.7.6-3.2 1.4-4.6 2.4-.6-.2-.9-.7-.9-1.3 0-.7.6-1.8 1.2-2.3l.2.3c.3-.2.5-.6.8-.7.1.1 0 .3.2.3.2-.1.4-.4.7-.5.1.1 0 .2.2.3.3 0 .5-.3.9-.4 0 .1-.1.2 0 .4.3-.2.6-.4 1-.4 0 .1-.2.2-.1.4.3 0 .6-.2 1-.2 0 .1-.1.2 0 .4.4-.1.8-.2 1.2-.1 0 .1-.1.2-.1.3.3.1.7 0 1 .1-.1.3-.4.5-.4.8.1.1.3 0 .4.1-.1.4-.5.5-.6.8.1.2.3 0 .4.1-.1.3-.5.5-.7.8.1.2.2.1.3.1-.2.3-.5.4-.7.7.1.1.2.1.3.2-.2.3-.6.4-.9.6M15.4 16c0 1.8-1.4 3.6-3.2 4s-3.4-.9-3.5-2.7 1.2-3.6 2.9-4c2.1-.6 3.8.7 3.8 2.7m8 .9c0 2.1-1.8 3.4-3.8 2.8-1.8-.6-3.1-2.5-2.8-4.4.3-1.8 2.1-2.9 3.9-2.2 1.6.6 2.7 2.2 2.7 3.8m-7.3 2.5c1 0 2 .4 2.7 1.2 1.2 1.3 1.1 3.2-.2 4.3s-3.4 1.2-4.7.1c-1-.8-1.4-1.8-1.2-3.1.3-1.3 1.2-2 2.4-2.4.3 0 .6-.1 1-.1m3.7 5.9c.1-1 .5-2 1.3-2.9.5-.5 1-1 1.5-1.4.3-.2.6-.3.9-.4.6-.1 1.1.1 1.3.7.4 1 .5 2 0 3-.6 1.4-1.7 2.3-3.2 2.6h-.5c-.9.1-1.3-.3-1.3-1.6M6.9 22.7v-.3q.15-1.65 1.8-1.2c1.7.5 3.3 2.5 3.4 4.3 0 1.1-.5 1.6-1.6 1.4-1.5-.2-2.5-1-3.1-2.3-.4-.6-.5-1.2-.5-1.9m9.3-9.9c-.8 0-1.6-.1-2.3-.5-1.3-.7-1.3-1.6-.2-2.4 1.5-1.1 3.5-1 4.9.2l.3.3c.5.6.4 1.2-.2 1.7-.5.4-1.1.5-1.7.6-.3.1-.6.1-.8.1M16 30c-1.2 0-2.2-.5-3.1-1.4-.4-.4-.4-.8.1-1.1.7-.4 1.4-.6 2.2-.7 1-.1 2-.1 3 .2.2.1.5.2.7.3.6.3.7.6.2 1.2l-.1.1c-.7.9-1.7 1.4-3 1.4M7.8 16.8c0 1.1-.2 2.1-.6 3.1-.1.3-.2.5-.4.7-.3.4-.5.4-.8.1-1.4-1.4-1.2-4.1.5-5.3.6-.5 1-.4 1.2.4 0 .3.1.7.1 1m19.1 1.5c0 .8-.3 1.7-.9 2.4-.3.3-.5.3-.8 0-.3-.4-.5-.9-.6-1.4-.3-1-.4-2.1-.3-3.2 0-.2.1-.5.2-.7.2-.4.4-.5.8-.2 1 .6 1.6 1.7 1.6 3.1M7.5 13.9c-.1-1.3.3-2.5 1.4-3.3s2.3-1 3.6-.8c0 .3-.2.5-.3.7-.7.9-1.6 1.6-2.4 2.3-.5.4-1 .7-1.5 1-.4.1-.6.3-.8.1m17.1.1c-.2.1-.5 0-.7-.2-.7-.4-1.4-.9-2-1.4-.7-.6-1.3-1.2-1.9-1.8-.1-.2-.3-.4-.3-.6.6-.3 2.6-.2 3.6.7 1 .8 1.6 2.4 1.3 3.3"/></svg>