<svg xmlns="http://www.w3.org/2000/svg" width="1080" height="1080" viewBox="0 0 1080 1080"><path fill="#d0b502" d="M214.753 722.126c-0.572 -11.043 -0.027 -23.735 -0.017 -34.927l-0.019 -432.713c-0.044 -53.388 12.483 -47.398 58.512 -47.368l299.206 0.021L609.609 207.124c7.651 -0.042 15.422 -0.47 23.02 0.015 9.988 6.714 112.666 112.896 113.134 114.102 0.922 2.371 0.548 11.794 0.565 14.943l0.013 489.658c-0.008 49.349 -16.664 47.503 -60.387 47.471l-297.253 -0.027c-8.224 -0.143 -20.204 2.786 -26.574 -3.276 -14.42 -13.724 -28.523 -27.742 -42.571 -41.837l-67.928 -68.331c-8.039 -8.125 -31.809 -29.217 -36.874 -37.716m26.23 -494.682c-6.55 1.841 -5.932 7.501 -5.948 13.481l-0.013 466.138 83.012 -0.019c59.311 0.006 61.121 -4.364 61.121 62.262l0.004 83.778 310.46 -0.011c6.126 0.004 24.589 0.643 29.274 0.011 9.671 -9.752 7.341 -16.535 7.32 -29.468l-0.046 -489.259 -54.295 0.038c-52.633 0.076 -53.365 -5.166 -53.346 -52.631l0.049 -54.321 -336.443 -0.015c-11.709 -0.008 -29.841 -0.603 -41.148 0.015m397.678 13.966 -0.044 42.166c0 7.364 -1.436 23.8 3.74 29.038 6.505 2.73 57.084 1.605 68.091 1.662 -19.82 -24.367 -49.798 -48.988 -71.786 -72.866M247.683 727.294c13.932 14.418 97.417 102.222 111.428 110.337l0.027 -66.574c-0.002 -51.918 7.914 -43.789 -42.593 -43.784z"/><path fill="#d0b502" d="m412.866 627.187 -43.242 0.023c-46.212 0.011 -38.488 3.305 -38.479 -43.691l0.015 -263.267h19.919v95.886h54.73c12.713 -34.389 56.025 -32.299 65.043 0 14.477 0.008 35.518 -0.736 49.53 0 0.023 -13.966 -0.441 -29.398 0 -43.16h20.52l0.019 128.136c0.008 30.696 -0.173 27.004 -27.639 26.951l-162.203 -0.044v78.838h61.788c8.826 -31.86 53.295 -33.446 66.979 0h80.31c16.748 11.606 62.828 61.809 78.266 77.853 9.372 9.741 -3.527 24.323 -15.162 13.416 -22.857 -21.427 -49.38 -48.041 -69.983 -70.94h-73.432c-15.221 31.733 -54.915 33.107 -66.979 0m22.207 -214.53a13.884 13.884 0 1 0 6.303 27.044 13.884 13.884 0 0 0 -6.303 -27.044m35.777 23.865c-11.794 30.875 -52.76 32.451 -65.043 0h-54.73v71.312h169.303v-71.312zm-27.057 165.995a14.437 14.437 0 1 0 4.13 28.578 14.437 14.437 0 0 0 -4.13 -28.578m373.127 168.547c-27.5 -40.951 -29.67 -17.069 -29.673 -69.16l0.008 -293.53c-0.023 -30.012 -3.012 -60.727 35.583 -69.173 38.488 -3.238 43.029 24.933 43.035 55.886l0.027 317.876c0.129 35.973 -7.448 27.304 -28.43 58.101 -0.293 27.424 0.2 54.926 0.019 82.356 -0.074 11.045 4.05 19.269 -5.883 19.864 -5.537 -0.312 -9.216 -0.23 -14.688 0zm9.941 -411.801c-24.528 4.02 -19.558 29.721 -19.501 48.735h38.116c0.063 -17.731 5.925 -47.67 -18.615 -48.735m-16.453 69.717c-6.548 0.43 -3.046 61.649 -3.046 71.468l-0.017 190.976c-0.013 33.358 -3.776 33.583 19.516 59.674 2.386 -3.263 4.554 -6.269 7.168 -9.349 15.43 -19.248 11.49 -19.539 11.479 -44.303l-0.032 -268.466z"/><path fill="#d0b502" d="M608.987 453.583V418.141h20.132v35.442c38.918 13.57 39.477 65.066 -3.358 77.749 -50.205 9.182 -68.407 -63.735 -16.774 -77.749m7.007 18.558a19.976 19.976 0 1 0 3.58 39.787 19.976 19.976 0 0 0 -3.58 -39.787"/></svg>