<?xml version="1.0" standalone="no"?>
<!DOCTYPE svg PUBLIC "-//W3C//DTD SVG 20010904//EN"
 "http://www.w3.org/TR/2001/REC-SVG-20010904/DTD/svg10.dtd">
<svg version="1.0" xmlns="http://www.w3.org/2000/svg"
 width="1200.000000pt" height="618.000000pt" viewBox="0 -10 1200.000000 818.000000"
 preserveAspectRatio="xMidYMid meet">

<g transform="translate(0.000000,618.000000) scale(0.100000,-0.100000)"
fill="#E5CE38" stroke="none">
<path d="M11395 5901 c-50 -23 -109 -84 -130 -133 -21 -51 -19 -143 4 -194 44
-96 135 -149 245 -142 127 8 216 97 224 224 7 110 -46 201 -142 245 -54 25
-148 25 -201 0z m158 -32 c138 -38 190 -216 95 -325 -76 -87 -199 -96 -284
-22 -90 79 -96 203 -16 290 56 59 126 79 205 57z"/>
<path d="M11380 5675 l0 -146 28 3 c26 3 27 6 30 61 3 56 4 57 32 57 24 0 35
-9 65 -55 31 -46 42 -55 66 -55 16 0 29 3 29 6 0 11 -51 92 -66 104 -12 11
-11 16 11 36 32 30 34 83 4 110 -17 15 -40 20 -110 22 l-89 4 0 -147z m171 79
c23 -27 -1 -49 -60 -52 l-51 -3 0 35 0 36 49 0 c32 0 53 -5 62 -16z"/>
<path d="M6028 5873 c6 -2 18 -2 25 0 6 3 1 5 -13 5 -14 0 -19 -2 -12 -5z"/>
<path d="M5855 5854 c-1528 -230 -2671 -549 -3765 -1051 -625 -286 -1096 -587
-1405 -897 -167 -168 -252 -280 -326 -431 -67 -137 -91 -234 -92 -365 -1 -168
44 -296 158 -445 287 -376 876 -639 1775 -795 96 -16 180 -30 185 -30 6 1 -55
21 -135 46 -278 87 -441 160 -573 257 -117 86 -167 163 -167 260 0 127 60 211
257 359 231 174 405 282 616 384 l118 56 472 -112 c260 -62 474 -114 475 -115
2 -2 -47 -42 -110 -88 -125 -93 -148 -123 -148 -200 0 -93 109 -202 295 -292
490 -240 1396 -292 2340 -134 575 96 1120 266 1451 452 112 62 289 188 376
266 156 141 216 335 147 478 -91 191 -443 358 -904 427 -218 33 -389 45 -920
66 -546 21 -787 70 -1023 207 -24 14 -41 27 -40 29 2 1 84 17 183 33 1488 252
2734 273 3890 65 527 -95 905 -293 1019 -533 28 -61 31 -74 30 -166 0 -79 -5
-111 -23 -154 -77 -188 -270 -379 -579 -574 -206 -129 -570 -302 -904 -428
-65 -24 -114 -45 -110 -47 13 -4 802 260 972 325 529 204 1084 487 1480 754
384 259 678 580 789 859 217 548 -145 1018 -1029 1332 -110 40 -312 99 -317
94 -3 -2 11 -9 29 -15 48 -16 183 -96 251 -150 122 -94 202 -238 202 -361 0
-126 -102 -282 -249 -382 -118 -81 -222 -121 -667 -259 l-137 -42 -268 41
c-148 23 -380 58 -516 79 -135 20 -245 40 -243 43 2 4 59 37 125 75 67 38 141
86 165 107 83 73 115 181 80 265 -37 89 -146 194 -260 251 -57 28 -181 68
-315 102 -1021 256 -2319 106 -3275 -380 -462 -234 -716 -468 -765 -706 -24
-114 20 -227 128 -333 73 -72 158 -119 333 -184 269 -101 475 -132 964 -147
834 -26 1115 -56 1336 -146 35 -15 75 -30 88 -35 45 -18 41 -19 -289 -74 -697
-117 -1425 -175 -2180 -175 -810 0 -1273 48 -1796 185 -423 111 -698 274 -795
471 -32 64 -34 75 -34 169 0 92 3 105 33 169 48 101 107 179 223 292 173 167
300 251 639 423 725 368 1427 580 2615 791 253 45 321 64 120 34z"/>
<path d="M375 1545 c-42 -19 -58 -34 -89 -79 -25 -38 -26 -43 -26 -198 0 -180
4 -194 72 -252 24 -21 131 -82 239 -136 107 -55 204 -108 213 -119 15 -16 18
-42 19 -158 l2 -138 -180 0 -180 0 -3 88 -3 87 -89 0 -90 0 0 -92 c0 -114 12
-158 53 -205 58 -66 86 -73 312 -73 172 0 206 3 240 19 51 23 101 79 114 128
14 50 14 347 0 397 -19 68 -69 106 -284 216 -110 57 -211 113 -223 125 -21 20
-24 34 -29 124 l-6 101 177 0 176 0 0 -29 c0 -15 3 -49 6 -75 l7 -46 88 0 89
0 0 88 c0 144 -31 210 -109 232 -58 16 -460 12 -496 -5z"/>
<path d="M11105 1541 c-48 -22 -79 -54 -100 -103 -20 -49 -21 -293 -1 -341 25
-60 104 -118 297 -215 101 -51 191 -98 200 -105 33 -25 39 -55 39 -186 l0
-131 -180 0 -180 0 0 90 0 90 -90 0 -90 0 0 -112 c0 -132 16 -172 88 -223 l44
-30 228 0 228 0 44 30 c23 17 53 49 65 70 21 38 23 51 23 235 0 220 -9 255
-71 303 -19 14 -121 68 -228 122 -106 53 -204 107 -217 120 -22 22 -24 32 -24
125 l0 100 180 0 180 0 0 -75 0 -75 85 0 85 0 0 108 c0 130 -14 166 -80 200
-42 21 -56 22 -265 22 -192 0 -225 -3 -260 -19z"/>
<path d="M1442 918 l3 -633 90 0 90 0 3 633 2 632 -95 0 -95 0 2 -632z"/>
<path d="M2082 913 l3 -638 315 0 315 0 3 92 3 93 -228 2 -228 3 -3 543 -2
542 -90 0 -90 0 2 -637z"/>
<path d="M2992 918 l3 -633 90 0 90 0 3 633 2 632 -95 0 -95 0 2 -632z"/>
<path d="M4828 1530 c-50 -27 -85 -76 -98 -136 -7 -33 -10 -209 -8 -515 3
-508 1 -491 65 -551 55 -52 85 -58 302 -58 198 0 199 0 252 28 43 22 59 38 82
82 l28 54 -3 490 c-3 552 1 524 -81 590 l-39 31 -231 2 c-215 2 -235 1 -269
-17z m442 -615 l0 -455 -180 0 -180 0 0 455 0 455 180 0 180 0 0 -455z"/>
<path d="M5810 910 l0 -641 93 3 92 3 5 400 5 399 176 -399 175 -400 92 -3 92
-3 0 641 0 640 -90 0 -90 0 -2 -406 -3 -407 -179 407 -179 406 -93 0 -94 0 0
-640z"/>
<path d="M7910 910 l0 -640 315 0 315 0 0 95 0 95 -225 0 -225 0 0 545 0 545
-90 0 -90 0 0 -640z"/>
<path d="M9130 1545 c0 -3 -81 -284 -180 -625 -99 -341 -180 -624 -180 -630 0
-7 32 -10 92 -8 l92 3 41 137 40 138 187 0 187 0 10 -37 c5 -21 17 -67 26
-103 9 -36 21 -82 26 -102 l10 -38 94 0 c52 0 95 3 95 8 0 4 -80 289 -177 634
l-178 628 -92 0 c-51 0 -93 -2 -93 -5z m159 -545 c34 -129 64 -243 67 -252 5
-17 -6 -18 -136 -18 -130 0 -141 1 -136 18 3 9 33 116 66 237 70 255 71 258
75 253 2 -2 31 -109 64 -238z"/>
<path d="M3735 1521 c-43 -26 -82 -75 -95 -119 -14 -51 -14 -944 1 -995 12
-43 59 -101 100 -123 22 -11 76 -14 254 -14 250 0 258 2 313 64 41 47 52 91
52 209 l0 97 -90 0 -90 0 0 -90 0 -90 -182 2 -183 3 -3 453 -2 452 185 0 185
0 0 -75 0 -75 90 0 90 0 0 73 c0 92 -13 139 -52 183 -55 62 -63 64 -315 64
-204 0 -231 -2 -258 -19z"/>
<path d="M9990 904 l0 -635 299 3 299 3 44 30 c25 18 52 49 66 75 20 41 22 58
22 219 l0 175 -67 68 -67 68 67 68 68 69 -3 185 c-3 182 -3 185 -31 226 -52
79 -65 82 -402 82 l-295 0 0 -636z m550 286 l0 -180 -180 0 -180 0 0 180 0
180 180 0 180 0 0 -180z m0 -550 l0 -180 -180 0 -180 0 0 180 0 180 180 0 180
0 0 -180z"/>
</g>
</svg>
