<?xml version="1.0" standalone="no"?>
<!DOCTYPE svg PUBLIC "-//W3C//DTD SVG 20010904//EN"
 "http://www.w3.org/TR/2001/REC-SVG-20010904/DTD/svg10.dtd">
<svg version="1.0" xmlns="http://www.w3.org/2000/svg"
 width="400.000000pt" height="600.000000pt" viewBox="0 0 600.000000 1300.000000"
 preserveAspectRatio="xMidYMid meet">

<g transform="translate(0.000000,600.000000) scale(0.100000,-0.100000)"
fill="#E5CE38" stroke="none">
<path d="M1477 4668 c-3 -7 -266 -621 -586 -1365 -320 -744 -581 -1355 -581
-1358 0 -3 391 -5 869 -5 l868 0 46 25 c44 25 87 87 87 125 0 12 -31 86 -48
117 -4 6 -167 162 -362 347 -448 422 -493 477 -544 660 -22 81 -26 115 -25
218 0 104 4 136 27 208 43 136 96 223 192 321 92 93 162 136 310 192 l85 32
1835 3 1835 3 100 235 c55 129 102 239 103 244 2 7 -753 10 -2101 10 -1675 0
-2106 -3 -2110 -12z"/>
<path d="M1910 3562 c-8 -4 -27 -15 -42 -26 -46 -30 -63 -133 -31 -183 9 -14
177 -178 372 -365 196 -187 373 -361 394 -386 62 -77 134 -206 158 -284 20
-62 23 -96 24 -218 0 -139 -2 -149 -33 -240 -74 -212 -200 -359 -392 -457 -85
-43 -100 -68 -48 -78 18 -3 121 -5 228 -3 l195 3 482 1115 c266 613 483 1118
483 1123 0 9 -1769 8 -1790 -1z"/>
<path d="M4341 3528 c-10 -24 -228 -528 -485 -1121 -256 -593 -466 -1081 -466
-1083 0 -2 192 -3 427 -2 l427 3 483 1115 c266 613 483 1118 483 1123 0 4
-191 7 -425 7 l-426 0 -18 -42z"/>
</g>
</svg>
