<?xml version="1.0" standalone="no"?>
<!DOCTYPE svg PUBLIC "-//W3C//DTD SVG 20010904//EN"
 "http://www.w3.org/TR/2001/REC-SVG-20010904/DTD/svg10.dtd">
<svg version="1.0" xmlns="http://www.w3.org/2000/svg"
 width="579.000000pt" height="372.000000pt" viewBox="0 0 579.000000 372.000000"
 preserveAspectRatio="xMidYMid meet">

<g transform="translate(0.000000,372.000000) scale(0.100000,-0.100000)"
fill="#E5CE38" stroke="none">
<path d="M669 2891 l-29 -29 0 -962 c0 -824 2 -965 15 -989 23 -46 66 -54 109
-20 l26 20 0 974 c0 535 -3 981 -6 990 -7 16 -54 45 -74 45 -6 0 -25 -13 -41
-29z"/>
<path d="M1279 2891 l-29 -29 0 -972 0 -971 25 -24 c31 -32 69 -32 100 0 l25
24 0 970 c0 533 -3 977 -6 986 -7 16 -54 45 -74 45 -6 0 -25 -13 -41 -29z"/>
<path d="M970 2760 c-19 -19 -20 -33 -20 -390 0 -357 1 -371 20 -390 11 -11
33 -20 50 -20 17 0 39 9 50 20 19 19 20 34 22 373 0 193 0 361 -1 371 -5 53
-81 76 -121 36z"/>
<path d="M3700 2320 l0 -460 75 0 75 0 0 460 0 460 -75 0 -75 0 0 -460z"/>
<path d="M385 2728 c-46 -25 -45 2 -45 -834 0 -785 0 -791 21 -818 27 -34 71
-35 104 -1 l25 24 0 790 0 790 -22 25 c-28 30 -57 39 -83 24z"/>
<path d="M1610 2733 c-8 -3 -23 -12 -32 -21 -17 -14 -18 -66 -18 -819 0 -790
0 -803 20 -823 26 -26 70 -26 98 0 l22 21 0 803 c0 752 -1 804 -17 818 -22 19
-53 28 -73 21z"/>
<path d="M3990 2702 c-36 -36 -39 -77 -10 -115 54 -68 170 -25 170 63 0 34
-42 71 -87 77 -37 5 -45 2 -73 -25z"/>
<path d="M2408 2655 l-3 -65 133 0 132 0 0 -365 0 -365 80 0 80 0 0 365 0 365
130 0 130 0 0 65 0 65 -339 0 -339 0 -4 -65z"/>
<path d="M4320 2525 l0 -85 -50 0 -51 0 3 -57 3 -58 46 -3 46 -3 5 -173 c5
-194 16 -233 76 -273 38 -25 120 -37 172 -25 35 8 35 8 38 65 l3 58 -35 -7
c-50 -9 -81 1 -94 31 -8 16 -12 82 -12 175 l0 149 73 3 72 3 3 58 3 57 -76 0
-75 0 0 85 0 85 -75 0 -75 0 0 -85z"/>
<path d="M3205 2446 c-83 -26 -154 -83 -188 -151 -58 -117 -39 -268 47 -363
58 -64 122 -87 241 -87 84 0 107 4 141 22 46 25 104 71 104 83 0 4 -20 24 -45
44 l-45 37 -41 -33 c-38 -31 -47 -33 -113 -33 -65 0 -77 3 -110 29 -31 23 -66
77 -66 101 0 3 102 5 226 5 l227 0 -6 74 c-7 93 -37 165 -92 215 -69 64 -184
87 -280 57z m150 -110 c37 -16 75 -68 75 -103 0 -23 -1 -23 -151 -23 -134 0
-150 2 -145 16 3 9 6 19 6 24 0 5 12 23 27 41 48 56 119 73 188 45z"/>
<path d="M3980 2150 l0 -290 75 0 75 0 0 290 0 290 -75 0 -75 0 0 -290z"/>
<path d="M51 2264 c-20 -26 -21 -38 -21 -371 l0 -345 29 -29 c35 -34 59 -36
95 -8 l26 20 0 360 c0 346 -1 360 -20 379 -30 30 -83 27 -109 -6z"/>
<path d="M1882 2267 c-22 -23 -22 -28 -22 -376 l0 -352 25 -24 c29 -30 64 -32
96 -6 l24 19 3 354 c3 348 2 355 -18 381 -28 35 -77 37 -108 4z"/>
<path d="M2658 1662 c-83 -30 -132 -73 -169 -148 -29 -59 -34 -78 -34 -144 0
-182 131 -311 314 -310 65 1 117 17 171 55 51 36 55 50 19 75 l-29 22 -35 -31
c-107 -93 -281 -45 -335 94 -22 54 -16 155 12 210 59 121 220 161 317 79 l31
-26 29 24 c17 13 30 26 30 30 2 15 -70 60 -115 74 -63 19 -148 17 -206 -4z"/>
<path d="M3042 1648 c-20 -20 -14 -56 13 -74 23 -15 27 -15 50 0 44 29 28 86
-25 86 -14 0 -31 -5 -38 -12z"/>
<path d="M4700 1640 c-24 -44 21 -92 65 -72 13 6 26 20 30 32 15 49 -71 85
-95 40z"/>
<path d="M3708 1528 l-3 -53 -37 -3 c-34 -3 -38 -6 -38 -32 0 -26 4 -29 38
-32 l37 -3 5 -143 c5 -143 5 -144 34 -168 24 -21 37 -24 85 -22 55 3 56 3 59
36 3 33 3 33 -30 27 -22 -4 -40 -1 -53 9 -18 13 -20 26 -20 138 l0 123 53 3
c50 3 52 4 52 33 0 29 -1 29 -55 29 l-55 0 0 55 0 55 -34 0 -35 0 -3 -52z"/>
<path d="M3364 1466 c-17 -8 -38 -24 -47 -36 l-15 -22 -4 28 c-3 26 -8 29 -41
32 l-37 3 2 -198 3 -198 38 -3 37 -3 0 121 c0 126 10 170 46 201 48 41 123 25
143 -31 6 -18 11 -91 11 -162 l0 -129 38 3 37 3 0 150 c0 168 -7 194 -64 232
-39 26 -99 30 -147 9z"/>
<path d="M4022 1459 c-169 -84 -138 -348 46 -388 81 -17 153 1 200 52 l23 25
-29 20 -29 21 -25 -26 c-54 -53 -157 -38 -198 30 -35 57 -35 57 141 57 l162 0
-6 51 c-4 27 -17 69 -29 92 -44 81 -163 112 -256 66z m142 -49 c26 -10 49 -39
61 -77 6 -23 6 -23 -114 -23 -67 0 -121 2 -121 5 0 20 36 69 63 85 35 22 72
25 111 10z"/>
<path d="M4555 1464 c-16 -8 -38 -25 -47 -37 l-18 -22 0 33 c0 32 -1 33 -37
30 -21 -2 -37 -6 -35 -10 1 -5 2 -94 2 -199 l0 -190 38 3 37 3 5 138 5 139 33
29 c22 20 43 29 67 29 21 0 35 5 36 13 0 6 2 22 5 35 3 19 0 22 -29 22 -17 0
-45 -7 -62 -16z"/>
<path d="M5015 1468 c-81 -29 -135 -106 -135 -194 1 -174 191 -269 340 -170
131 86 106 299 -42 360 -42 18 -118 20 -163 4z m146 -74 c38 -19 59 -62 59
-121 0 -60 -16 -91 -59 -120 -65 -44 -157 -18 -187 52 -56 135 61 255 187 189z"/>
<path d="M5525 1466 c-17 -7 -37 -21 -45 -31 -14 -17 -15 -16 -20 6 -5 19 -13
25 -43 27 l-37 3 0 -200 0 -201 39 0 39 0 4 139 c3 138 3 140 31 169 33 34 68
44 108 30 47 -16 59 -59 59 -207 l0 -131 40 0 40 0 0 143 c0 118 -4 149 -20
184 -33 73 -117 103 -195 69z"/>
<path d="M3040 1270 l0 -200 40 0 40 0 0 200 0 200 -40 0 -40 0 0 -200z"/>
<path d="M4702 1273 l3 -198 38 -3 37 -3 0 200 0 201 -40 0 -40 0 2 -197z"/>
<path d="M966 1388 c-14 -19 -16 -64 -16 -285 0 -250 1 -264 20 -283 11 -11
33 -20 50 -20 17 0 39 9 50 20 19 19 20 34 22 268 0 136 0 256 -1 266 -5 55
-94 79 -125 34z"/>
</g>
</svg>
