<?xml version="1.0" standalone="no"?>
<!DOCTYPE svg PUBLIC "-//W3C//DTD SVG 20010904//EN"
 "http://www.w3.org/TR/2001/REC-SVG-20010904/DTD/svg10.dtd">
<svg version="1.0" xmlns="http://www.w3.org/2000/svg"
 width="2560.000000pt" height="1170.000000pt" viewBox="0 -100 2560.000000 1500.000000"
 preserveAspectRatio="xMidYMid meet">

<g transform="translate(0.000000,1170.000000) scale(0.100000,-0.100000)"
fill="#E5CE38" stroke="none">
<path d="M20300 10875 l825 -825 1347 0 1348 0 0 -1348 0 -1347 823 -823 c452
-452 825 -822 830 -822 4 0 7 1348 7 2995 l0 2995 -3002 0 -3003 0 825 -825z"/>
<path d="M2239 11273 c-6 -16 -476 -1189 -1046 -2608 -570 -1419 -1038 -2588
-1041 -2597 -4 -17 33 -18 684 -18 l689 0 190 518 191 517 1171 3 1171 2 64
-152 c35 -84 134 -318 219 -520 l154 -368 698 0 c661 0 698 1 693 18 -3 9
-525 1189 -1160 2622 l-1154 2605 -756 3 -756 2 -11 -27z m1215 -2273 l413
-985 -403 -3 c-222 -1 -586 -1 -808 0 l-404 3 354 945 c195 520 366 976 381
1015 l26 69 14 -29 c8 -17 200 -473 427 -1015z"/>
<path d="M6700 8685 l0 -2615 645 0 645 0 2 1633 3 1632 710 -827 710 -828 96
0 96 0 709 827 709 827 3 -1632 2 -1632 655 0 655 0 0 2615 0 2615 -574 0
-575 0 -833 -979 c-458 -539 -835 -980 -838 -980 -3 0 -380 441 -838 980
l-834 979 -574 0 -574 0 0 -2615z"/>
<path d="M13340 8685 l0 -2616 1268 4 c1362 3 1348 3 1682 58 548 90 1017 284
1370 567 422 339 699 818 804 1392 66 360 63 818 -9 1176 -110 547 -385 1025
-789 1370 -409 352 -911 556 -1571 641 -114 14 -291 17 -1442 20 l-1313 4 0
-2616z m2485 1612 c416 -66 694 -192 928 -425 178 -175 296 -386 366 -652 122
-464 81 -985 -110 -1375 -74 -153 -143 -249 -269 -376 -246 -249 -526 -378
-955 -440 -48 -7 -293 -13 -617 -16 l-538 -5 0 1657 0 1657 548 -5 c430 -3
568 -8 647 -20z"/>
<path d="M20273 8878 l-853 -853 0 -1188 0 -1187 1193 0 1193 0 842 852 842
853 -1180 3 -1180 2 -2 1185 -3 1185 -852 -852z"/>
<path d="M231 3628 c7 -13 228 -394 492 -848 264 -454 491 -844 504 -867 l24
-42 -550 -930 c-303 -511 -551 -932 -551 -935 0 -4 142 -5 316 -4 l316 3 397
677 c309 528 398 674 407 663 6 -8 178 -314 383 -680 l373 -665 335 0 c184 0
333 4 331 8 -1 5 -254 425 -561 935 -513 851 -557 928 -546 949 12 23 983
1664 1021 1726 l20 32 -329 0 -328 0 -350 -630 c-192 -346 -353 -629 -357
-627 -5 1 -165 283 -356 627 l-348 625 -328 3 -327 2 12 -22z"/>
<path d="M3250 1825 l0 -1825 280 0 280 0 0 1825 0 1825 -280 0 -280 0 0
-1825z"/>
<path d="M4380 1825 l0 -1825 1005 0 1005 0 0 265 0 265 -715 0 -715 0 0 1560
0 1560 -290 0 -290 0 0 -1825z"/>
<path d="M6790 1825 l0 -1825 285 0 285 0 0 1825 0 1825 -285 0 -285 0 0
-1825z"/>
<path d="M7960 1825 l0 -1825 280 0 280 0 0 1273 0 1272 847 -1270 846 -1270
244 -3 243 -2 0 1825 0 1825 -270 0 -270 0 0 -1255 c0 -690 -3 -1255 -7 -1255
-10 1 -1677 2475 -1681 2495 -3 13 -40 15 -258 15 l-254 0 0 -1825z"/>
<path d="M11042 3628 c82 -128 1032 -1747 1032 -1758 0 -8 -251 -431 -557
-939 -306 -508 -557 -925 -557 -927 0 -2 147 -3 326 -2 l327 3 384 670 c211
369 387 673 391 677 4 3 182 -300 396 -673 l388 -679 325 0 c256 0 324 3 320
13 -2 6 -255 427 -561 935 l-556 923 525 887 525 887 -322 3 c-250 2 -325 -1
-333 -10 -7 -7 -166 -291 -355 -630 -189 -340 -346 -618 -349 -618 -3 0 -163
283 -356 630 l-350 630 -329 0 -328 0 14 -22z"/>
</g>
</svg>
